<svg width="20" height="16" viewBox="0 0 20 16" fill="none" xmlns="http://www.w3.org/2000/svg">
<path d="M8.0284 15.7637L3.51414e-07 8.03942L8.0284 0.315174C8.10091 0.224039 8.19303 0.14888 8.29852 0.094783C8.40402 0.0406864 8.52042 0.00891604 8.63986 0.00162226C8.7593 -0.00567153 8.87898 0.0116821 8.9908 0.0525077C9.10262 0.0933333 9.20397 0.156678 9.28799 0.238253C9.37201 0.319829 9.43674 0.417731 9.47779 0.525331C9.51884 0.632931 9.53526 0.747717 9.52594 0.861919C9.51661 0.97612 9.48176 1.08707 9.42374 1.18726C9.36572 1.28745 9.28588 1.37454 9.18964 1.44263L3.18296 7.23981L19.1646 7.23981C19.3861 7.23981 19.5986 7.32405 19.7553 7.47401C19.912 7.62396 20 7.82735 20 8.03942C20 8.25149 19.912 8.45487 19.7553 8.60483C19.5986 8.75479 19.3861 8.83903 19.1646 8.83903L3.18296 8.83903L9.18964 14.6362C9.34585 14.7868 9.43316 14.9906 9.43238 15.2028C9.43159 15.415 9.34278 15.6182 9.18546 15.7677C9.02815 15.9172 8.81523 16.0007 8.59354 16C8.37185 15.9992 8.15955 15.9142 8.00334 15.7637L8.0284 15.7637Z" fill="#547068"/>
</svg>
